<?xml version="1.0" encoding="utf-8" ?>
<svg baseProfile="full" height="450px" version="1.1" width="800px" xmlns="http://www.w3.org/2000/svg" xmlns:ev="http://www.w3.org/2001/xml-events" xmlns:xlink="http://www.w3.org/1999/xlink"><defs><linearGradient id="ai_gradient" x1="0" x2="1" y1="0" y2="1"><stop offset="0%" stop-color="#1565c0" stop-opacity="1" /><stop offset="100%" stop-color="#42a5f5" stop-opacity="0.7" /></linearGradient></defs><rect fill="#1565c0" height="100%" width="100%" x="0" y="0" /><rect fill="url(#ai_gradient)" height="100%" width="100%" x="0" y="0" /><g><polygon fill="#42a5f5" fill-opacity="0.2747851643521592" points="227.0,307.0 218.0,322.5884572681199 200.0,322.5884572681199 191.0,307.0 200.0,291.4115427318801 218.0,291.4115427318801" /><circle cx="469" cy="125" fill="#bbdefb" fill-opacity="0.2029997869606035" r="43.0" /><circle cx="197" cy="194" fill="#bbdefb" fill-opacity="0.20044890171190832" r="41.5" /><polygon fill="#42a5f5" fill-opacity="0.19135847001598033" points="467.5,364.0 435.36929023843504,408.22412800772463 383.38070976156496,391.3320142316 383.38070976156496,336.6679857684 435.36929023843504,319.77587199227537" /><rect fill="#bbdefb" fill-opacity="0.22278818784957574" height="88" transform="rotate(32, 543, 336)" width="88" x="543" y="336" /><circle cx="347" cy="268" fill="#42a5f5" fill-opacity="0.21471026378374697" r="11.5" /><circle cx="399" cy="109" fill="#42a5f5" fill-opacity="0.2826179987255589" r="32.5" /><rect fill="#bbdefb" fill-opacity="0.22430885517242416" height="28" transform="rotate(12, 78, 281)" width="28" x="78" y="281" /><circle cx="603" cy="385" fill="#42a5f5" fill-opacity="0.21797995909226464" r="16.5" /><circle cx="281" cy="419" fill="#42a5f5" fill-opacity="0.13901923566911226" r="36.0" /><rect fill="#42a5f5" fill-opacity="0.15286943462597932" height="32" transform="rotate(21, 556, 245)" width="32" x="556" y="245" /><circle cx="60" cy="406" fill="#bbdefb" fill-opacity="0.2680147933199004" r="41.0" /><rect fill="#42a5f5" fill-opacity="0.2847320821277468" height="74" transform="rotate(9, 309, 148)" width="74" x="309" y="148" /><rect fill="#42a5f5" fill-opacity="0.2627554068667073" height="92" transform="rotate(41, 331, 155)" width="92" x="331" y="155" /><circle cx="661" cy="429" fill="#bbdefb" fill-opacity="0.29248312943431193" r="23.5" /></g><g><circle cx="400.0" cy="225.0" fill="#ffffff" fill-opacity="0.9" r="56.25" /><line stroke="#ffffff" stroke-opacity="0.7" stroke-width="2" x1="400.0" x2="512.5" y1="225.0" y2="225.0" /><circle cx="512.5" cy="225.0" fill="#ffffff" fill-opacity="0.8" r="18.75" /><line stroke="#ffffff" stroke-opacity="0.7" stroke-width="2" x1="400.0" x2="479.5495128834866" y1="225.0" y2="304.5495128834866" /><circle cx="479.5495128834866" cy="304.5495128834866" fill="#ffffff" fill-opacity="0.8" r="18.75" /><line stroke="#ffffff" stroke-opacity="0.7" stroke-width="2" x1="400.0" x2="400.0" y1="225.0" y2="337.5" /><circle cx="400.0" cy="337.5" fill="#ffffff" fill-opacity="0.8" r="18.75" /><line stroke="#ffffff" stroke-opacity="0.7" stroke-width="2" x1="400.0" x2="320.4504871165134" y1="225.0" y2="304.5495128834866" /><circle cx="320.4504871165134" cy="304.5495128834866" fill="#ffffff" fill-opacity="0.8" r="18.75" /><line stroke="#ffffff" stroke-opacity="0.7" stroke-width="2" x1="400.0" x2="287.5" y1="225.0" y2="225.0" /><circle cx="287.5" cy="225.0" fill="#ffffff" fill-opacity="0.8" r="18.75" /><line stroke="#ffffff" stroke-opacity="0.7" stroke-width="2" x1="400.0" x2="320.4504871165134" y1="225.0" y2="145.45048711651344" /><circle cx="320.4504871165134" cy="145.45048711651344" fill="#ffffff" fill-opacity="0.8" r="18.75" /><line stroke="#ffffff" stroke-opacity="0.7" stroke-width="2" x1="400.0" x2="400.0" y1="225.0" y2="112.5" /><circle cx="400.0" cy="112.5" fill="#ffffff" fill-opacity="0.8" r="18.75" /><line stroke="#ffffff" stroke-opacity="0.7" stroke-width="2" x1="400.0" x2="479.54951288348656" y1="225.0" y2="145.4504871165134" /><circle cx="479.54951288348656" cy="145.4504871165134" fill="#ffffff" fill-opacity="0.8" r="18.75" /></g><text fill="none" font-family="Arial, sans-serif" font-size="40" font-weight="bold" stroke="#1565c0" stroke-width="2" text-anchor="middle" x="400.0" y="390">Aplicacoes</text><text fill="#ffffff" font-family="Arial, sans-serif" font-size="40" font-weight="bold" text-anchor="middle" x="400.0" y="390">Aplicacoes</text></svg>