<?xml version="1.0" encoding="utf-8" ?>
<svg baseProfile="full" height="450px" version="1.1" width="800px" xmlns="http://www.w3.org/2000/svg" xmlns:ev="http://www.w3.org/2001/xml-events" xmlns:xlink="http://www.w3.org/1999/xlink"><defs><linearGradient id="ai_gradient" x1="0" x2="1" y1="0" y2="1"><stop offset="0%" stop-color="#1565c0" stop-opacity="1" /><stop offset="100%" stop-color="#42a5f5" stop-opacity="0.7" /></linearGradient></defs><rect fill="#1565c0" height="100%" width="100%" x="0" y="0" /><rect fill="url(#ai_gradient)" height="100%" width="100%" x="0" y="0" /><g><rect fill="#bbdefb" fill-opacity="0.23902980968535684" height="43" transform="rotate(19, 203, 81)" width="43" x="203" y="81" /><rect fill="#bbdefb" fill-opacity="0.1533487523194893" height="48" transform="rotate(22, 531, 357)" width="48" x="531" y="357" /><polygon fill="#42a5f5" fill-opacity="0.29284158894824996" points="81.0,324.0 16.50000000000001,361.23909236273084 16.499999999999982,286.76090763726916" /><circle cx="321" cy="46" fill="#bbdefb" fill-opacity="0.11219739790343515" r="11.5" /><polygon fill="#42a5f5" fill-opacity="0.17298492204768617" points="807.0,44.0 783.0,57.85640646055102 783.0,30.143593539448986" /><rect fill="#42a5f5" fill-opacity="0.21778984903423598" height="72" transform="rotate(21, 490, 235)" width="72" x="490" y="235" /><polygon fill="#bbdefb" fill-opacity="0.16649260739989674" points="254.0,161.0 236.0,171.39230484541326 236.0,150.60769515458674" /><polygon fill="#42a5f5" fill-opacity="0.1126669945141984" points="738.5,135.0 686.75,164.87787643056313 686.75,105.12212356943688" /><circle cx="125" cy="40" fill="#42a5f5" fill-opacity="0.19382727894124002" r="38.5" /><polygon fill="#bbdefb" fill-opacity="0.15001035631048204" points="678.5,371.0 659.25,404.3419780457009 620.75,404.3419780457009 601.5,371.0 620.75,337.6580219542991 659.25,337.6580219542991" /><polygon fill="#bbdefb" fill-opacity="0.29565401719743634" points="805.5,69.0 787.1889503509361,94.20299768182157 757.5610496490639,84.57630918575055 757.5610496490639,53.42369081424947 787.1889503509361,43.79700231817843" /><rect fill="#42a5f5" fill-opacity="0.19788213983819475" height="76" transform="rotate(1, 84, 405)" width="76" x="84" y="405" /><circle cx="517" cy="52" fill="#42a5f5" fill-opacity="0.15409180483978546" r="40.5" /><polygon fill="#42a5f5" fill-opacity="0.24977444686850706" points="634.5,157.0 600.75,176.48557158514987 600.75,137.51442841485013" /><rect fill="#42a5f5" fill-opacity="0.20362007633946944" height="90" transform="rotate(44, 634, 213)" width="90" x="634" y="213" /></g><g><circle cx="400.0" cy="225.0" fill="#ffffff" fill-opacity="0.9" r="56.25" /><line stroke="#ffffff" stroke-opacity="0.7" stroke-width="2" x1="400.0" x2="512.5" y1="225.0" y2="225.0" /><circle cx="512.5" cy="225.0" fill="#ffffff" fill-opacity="0.8" r="18.75" /><line stroke="#ffffff" stroke-opacity="0.7" stroke-width="2" x1="400.0" x2="479.5495128834866" y1="225.0" y2="304.5495128834866" /><circle cx="479.5495128834866" cy="304.5495128834866" fill="#ffffff" fill-opacity="0.8" r="18.75" /><line stroke="#ffffff" stroke-opacity="0.7" stroke-width="2" x1="400.0" x2="400.0" y1="225.0" y2="337.5" /><circle cx="400.0" cy="337.5" fill="#ffffff" fill-opacity="0.8" r="18.75" /><line stroke="#ffffff" stroke-opacity="0.7" stroke-width="2" x1="400.0" x2="320.4504871165134" y1="225.0" y2="304.5495128834866" /><circle cx="320.4504871165134" cy="304.5495128834866" fill="#ffffff" fill-opacity="0.8" r="18.75" /><line stroke="#ffffff" stroke-opacity="0.7" stroke-width="2" x1="400.0" x2="287.5" y1="225.0" y2="225.0" /><circle cx="287.5" cy="225.0" fill="#ffffff" fill-opacity="0.8" r="18.75" /><line stroke="#ffffff" stroke-opacity="0.7" stroke-width="2" x1="400.0" x2="320.4504871165134" y1="225.0" y2="145.45048711651344" /><circle cx="320.4504871165134" cy="145.45048711651344" fill="#ffffff" fill-opacity="0.8" r="18.75" /><line stroke="#ffffff" stroke-opacity="0.7" stroke-width="2" x1="400.0" x2="400.0" y1="225.0" y2="112.5" /><circle cx="400.0" cy="112.5" fill="#ffffff" fill-opacity="0.8" r="18.75" /><line stroke="#ffffff" stroke-opacity="0.7" stroke-width="2" x1="400.0" x2="479.54951288348656" y1="225.0" y2="145.4504871165134" /><circle cx="479.54951288348656" cy="145.4504871165134" fill="#ffffff" fill-opacity="0.8" r="18.75" /></g><text fill="none" font-family="Arial, sans-serif" font-size="40" font-weight="bold" stroke="#1565c0" stroke-width="2" text-anchor="middle" x="400.0" y="390">Etica</text><text fill="#ffffff" font-family="Arial, sans-serif" font-size="40" font-weight="bold" text-anchor="middle" x="400.0" y="390">Etica</text></svg>