<?xml version="1.0" encoding="utf-8" ?>
<svg baseProfile="full" height="450px" version="1.1" width="800px" xmlns="http://www.w3.org/2000/svg" xmlns:ev="http://www.w3.org/2001/xml-events" xmlns:xlink="http://www.w3.org/1999/xlink"><defs><linearGradient id="ai_gradient" x1="0" x2="1" y1="0" y2="1"><stop offset="0%" stop-color="#1565c0" stop-opacity="1" /><stop offset="100%" stop-color="#42a5f5" stop-opacity="0.7" /></linearGradient></defs><rect fill="#1565c0" height="100%" width="100%" x="0" y="0" /><rect fill="url(#ai_gradient)" height="100%" width="100%" x="0" y="0" /><g><circle cx="611" cy="6" fill="#bbdefb" fill-opacity="0.2656918757442521" r="38.5" /><circle cx="247" cy="369" fill="#42a5f5" fill-opacity="0.1768270024238518" r="47.5" /><rect fill="#bbdefb" fill-opacity="0.2476729722542862" height="24" transform="rotate(26, 463, 325)" width="24" x="463" y="325" /><polygon fill="#bbdefb" fill-opacity="0.14230612568868536" points="87.5,96.0 73.33484838468642,115.49665858405065 50.415151615313576,108.0495976719957 50.415151615313576,83.9504023280043 73.33484838468642,76.50334141594935" /><rect fill="#42a5f5" fill-opacity="0.182986439348542" height="72" transform="rotate(8, 507, 417)" width="72" x="507" y="417" /><circle cx="94" cy="226" fill="#bbdefb" fill-opacity="0.19231971750868415" r="46.5" /><circle cx="724" cy="422" fill="#bbdefb" fill-opacity="0.16953499194650928" r="12.5" /><circle cx="48" cy="400" fill="#bbdefb" fill-opacity="0.2445238065908996" r="37.5" /><polygon fill="#42a5f5" fill-opacity="0.20715154370114447" points="678.0,396.0 665.5,417.65063509461095 640.5,417.65063509461095 628.0,396.0 640.5,374.34936490538905 665.5,374.34936490538905" /><circle cx="574" cy="50" fill="#42a5f5" fill-opacity="0.27519458618550907" r="40.0" /><circle cx="25" cy="122" fill="#bbdefb" fill-opacity="0.2987953013578656" r="31.0" /><polygon fill="#42a5f5" fill-opacity="0.20203656757125488" points="505.5,58.0 477.75,74.02146997001212 477.75,41.978530029987894" /><circle cx="274" cy="377" fill="#42a5f5" fill-opacity="0.28563009243907655" r="33.0" /><polygon fill="#42a5f5" fill-opacity="0.10018234784672436" points="573.0,211.0 550.1975608143732,242.38486503774007 513.3024391856268,230.3969133256516 513.3024391856268,191.6030866743484 550.1975608143732,179.61513496225993" /><polygon fill="#42a5f5" fill-opacity="0.2408411943613691" points="815.5,339.0 786.25,355.8874953737966 786.25,322.1125046262035" /></g><g><circle cx="400.0" cy="225.0" fill="#ffffff" fill-opacity="0.9" r="56.25" /><line stroke="#ffffff" stroke-opacity="0.7" stroke-width="2" x1="400.0" x2="512.5" y1="225.0" y2="225.0" /><circle cx="512.5" cy="225.0" fill="#ffffff" fill-opacity="0.8" r="18.75" /><line stroke="#ffffff" stroke-opacity="0.7" stroke-width="2" x1="400.0" x2="479.5495128834866" y1="225.0" y2="304.5495128834866" /><circle cx="479.5495128834866" cy="304.5495128834866" fill="#ffffff" fill-opacity="0.8" r="18.75" /><line stroke="#ffffff" stroke-opacity="0.7" stroke-width="2" x1="400.0" x2="400.0" y1="225.0" y2="337.5" /><circle cx="400.0" cy="337.5" fill="#ffffff" fill-opacity="0.8" r="18.75" /><line stroke="#ffffff" stroke-opacity="0.7" stroke-width="2" x1="400.0" x2="320.4504871165134" y1="225.0" y2="304.5495128834866" /><circle cx="320.4504871165134" cy="304.5495128834866" fill="#ffffff" fill-opacity="0.8" r="18.75" /><line stroke="#ffffff" stroke-opacity="0.7" stroke-width="2" x1="400.0" x2="287.5" y1="225.0" y2="225.0" /><circle cx="287.5" cy="225.0" fill="#ffffff" fill-opacity="0.8" r="18.75" /><line stroke="#ffffff" stroke-opacity="0.7" stroke-width="2" x1="400.0" x2="320.4504871165134" y1="225.0" y2="145.45048711651344" /><circle cx="320.4504871165134" cy="145.45048711651344" fill="#ffffff" fill-opacity="0.8" r="18.75" /><line stroke="#ffffff" stroke-opacity="0.7" stroke-width="2" x1="400.0" x2="400.0" y1="225.0" y2="112.5" /><circle cx="400.0" cy="112.5" fill="#ffffff" fill-opacity="0.8" r="18.75" /><line stroke="#ffffff" stroke-opacity="0.7" stroke-width="2" x1="400.0" x2="479.54951288348656" y1="225.0" y2="145.4504871165134" /><circle cx="479.54951288348656" cy="145.4504871165134" fill="#ffffff" fill-opacity="0.8" r="18.75" /></g><text fill="none" font-family="Arial, sans-serif" font-size="40" font-weight="bold" stroke="#1565c0" stroke-width="2" text-anchor="middle" x="400.0" y="390">Fundamentos</text><text fill="#ffffff" font-family="Arial, sans-serif" font-size="40" font-weight="bold" text-anchor="middle" x="400.0" y="390">Fundamentos</text></svg>