<?xml version="1.0" encoding="utf-8" ?>
<svg baseProfile="full" height="450px" version="1.1" width="800px" xmlns="http://www.w3.org/2000/svg" xmlns:ev="http://www.w3.org/2001/xml-events" xmlns:xlink="http://www.w3.org/1999/xlink"><defs><linearGradient id="ai_gradient" x1="0" x2="1" y1="0" y2="1"><stop offset="0%" stop-color="#1565c0" stop-opacity="1" /><stop offset="100%" stop-color="#42a5f5" stop-opacity="0.7" /></linearGradient></defs><rect fill="#1565c0" height="100%" width="100%" x="0" y="0" /><rect fill="url(#ai_gradient)" height="100%" width="100%" x="0" y="0" /><g><rect fill="#42a5f5" fill-opacity="0.2592582312275022" height="57" transform="rotate(8, 158, 371)" width="57" x="158" y="371" /><rect fill="#bbdefb" fill-opacity="0.11306093185525506" height="24" transform="rotate(3, 749, 4)" width="24" x="749" y="4" /><polygon fill="#bbdefb" fill-opacity="0.19174900642678055" points="729.0,28.0 706.1975608143732,59.38486503774007 669.3024391856268,47.39691332565162 669.3024391856268,8.60308667434839 706.1975608143732,-3.38486503774007" /><rect fill="#42a5f5" fill-opacity="0.27865354006657417" height="60" transform="rotate(14, 779, 410)" width="60" x="779" y="410" /><rect fill="#42a5f5" fill-opacity="0.1043080784553999" height="97" transform="rotate(10, 80, 411)" width="97" x="80" y="411" /><polygon fill="#42a5f5" fill-opacity="0.17571365201990774" points="431.5,250.0 390.0,291.5 348.5,250.0 390.0,208.5" /><polygon fill="#bbdefb" fill-opacity="0.23411400639286042" points="397.5,74.0 368.0,103.5 338.5,74.0 368.0,44.5" /><circle cx="687" cy="267" fill="#42a5f5" fill-opacity="0.11616699625662363" r="49.0" /><polygon fill="#42a5f5" fill-opacity="0.11360977634931833" points="410.0,385.0 387.0,424.83716857408416 341.0,424.8371685740842 318.0,385.0 341.0,345.16283142591584 387.0,345.16283142591584" /><circle cx="148" cy="195" fill="#42a5f5" fill-opacity="0.29481263539521385" r="21.5" /><circle cx="368" cy="284" fill="#42a5f5" fill-opacity="0.18079147320295977" r="13.0" /><circle cx="672" cy="309" fill="#42a5f5" fill-opacity="0.14229947414840777" r="33.0" /><rect fill="#bbdefb" fill-opacity="0.17186643425881162" height="61" transform="rotate(19, 113, 55)" width="61" x="113" y="55" /><rect fill="#42a5f5" fill-opacity="0.27620250556089787" height="95" transform="rotate(40, 226, 443)" width="95" x="226" y="443" /><circle cx="288" cy="375" fill="#42a5f5" fill-opacity="0.1271332931971698" r="36.0" /></g><g><circle cx="400.0" cy="225.0" fill="#ffffff" fill-opacity="0.9" r="56.25" /><line stroke="#ffffff" stroke-opacity="0.7" stroke-width="2" x1="400.0" x2="512.5" y1="225.0" y2="225.0" /><circle cx="512.5" cy="225.0" fill="#ffffff" fill-opacity="0.8" r="18.75" /><line stroke="#ffffff" stroke-opacity="0.7" stroke-width="2" x1="400.0" x2="479.5495128834866" y1="225.0" y2="304.5495128834866" /><circle cx="479.5495128834866" cy="304.5495128834866" fill="#ffffff" fill-opacity="0.8" r="18.75" /><line stroke="#ffffff" stroke-opacity="0.7" stroke-width="2" x1="400.0" x2="400.0" y1="225.0" y2="337.5" /><circle cx="400.0" cy="337.5" fill="#ffffff" fill-opacity="0.8" r="18.75" /><line stroke="#ffffff" stroke-opacity="0.7" stroke-width="2" x1="400.0" x2="320.4504871165134" y1="225.0" y2="304.5495128834866" /><circle cx="320.4504871165134" cy="304.5495128834866" fill="#ffffff" fill-opacity="0.8" r="18.75" /><line stroke="#ffffff" stroke-opacity="0.7" stroke-width="2" x1="400.0" x2="287.5" y1="225.0" y2="225.0" /><circle cx="287.5" cy="225.0" fill="#ffffff" fill-opacity="0.8" r="18.75" /><line stroke="#ffffff" stroke-opacity="0.7" stroke-width="2" x1="400.0" x2="320.4504871165134" y1="225.0" y2="145.45048711651344" /><circle cx="320.4504871165134" cy="145.45048711651344" fill="#ffffff" fill-opacity="0.8" r="18.75" /><line stroke="#ffffff" stroke-opacity="0.7" stroke-width="2" x1="400.0" x2="400.0" y1="225.0" y2="112.5" /><circle cx="400.0" cy="112.5" fill="#ffffff" fill-opacity="0.8" r="18.75" /><line stroke="#ffffff" stroke-opacity="0.7" stroke-width="2" x1="400.0" x2="479.54951288348656" y1="225.0" y2="145.4504871165134" /><circle cx="479.54951288348656" cy="145.4504871165134" fill="#ffffff" fill-opacity="0.8" r="18.75" /></g><text fill="none" font-family="Arial, sans-serif" font-size="40" font-weight="bold" stroke="#1565c0" stroke-width="2" text-anchor="middle" x="400.0" y="390">Machine Learning</text><text fill="#ffffff" font-family="Arial, sans-serif" font-size="40" font-weight="bold" text-anchor="middle" x="400.0" y="390">Machine Learning</text></svg>