<?xml version="1.0" encoding="utf-8" ?>
<svg baseProfile="full" height="450px" version="1.1" width="800px" xmlns="http://www.w3.org/2000/svg" xmlns:ev="http://www.w3.org/2001/xml-events" xmlns:xlink="http://www.w3.org/1999/xlink"><defs><linearGradient id="ai_gradient" x1="0" x2="1" y1="0" y2="1"><stop offset="0%" stop-color="#1565c0" stop-opacity="1" /><stop offset="100%" stop-color="#42a5f5" stop-opacity="0.7" /></linearGradient></defs><rect fill="#1565c0" height="100%" width="100%" x="0" y="0" /><rect fill="url(#ai_gradient)" height="100%" width="100%" x="0" y="0" /><g><rect fill="#42a5f5" fill-opacity="0.10609425625310703" height="45" transform="rotate(18, 623, 401)" width="45" x="623" y="401" /><rect fill="#bbdefb" fill-opacity="0.1321233120292858" height="37" transform="rotate(12, 96, 377)" width="37" x="96" y="377" /><circle cx="591" cy="394" fill="#42a5f5" fill-opacity="0.2694755870901339" r="23.0" /><polygon fill="#bbdefb" fill-opacity="0.20022306017742464" points="700.0,81.0 687.0,103.5166604983954 661.0,103.51666049839541 648.0,81.0 661.0,58.483339501604604 687.0,58.4833395016046" /><circle cx="90" cy="321" fill="#42a5f5" fill-opacity="0.24348555296783253" r="22.5" /><circle cx="147" cy="130" fill="#bbdefb" fill-opacity="0.21514754638018807" r="25.5" /><rect fill="#bbdefb" fill-opacity="0.15281420622091718" height="56" transform="rotate(14, 265, 339)" width="56" x="265" y="339" /><rect fill="#bbdefb" fill-opacity="0.23930039191320926" height="24" transform="rotate(20, 383, 159)" width="24" x="383" y="159" /><rect fill="#42a5f5" fill-opacity="0.27622237254829857" height="95" transform="rotate(15, 686, 84)" width="95" x="686" y="84" /><polygon fill="#42a5f5" fill-opacity="0.14675788554919386" points="553.0,142.0 479.5,184.4352447854375 479.5,99.56475521456252" /><rect fill="#42a5f5" fill-opacity="0.20376992132858182" height="60" transform="rotate(22, 513, 12)" width="60" x="513" y="12" /><rect fill="#42a5f5" fill-opacity="0.27407287234481137" height="58" transform="rotate(12, 409, 124)" width="58" x="409" y="124" /><rect fill="#42a5f5" fill-opacity="0.227988487211932" height="89" transform="rotate(38, 35, 328)" width="89" x="35" y="328" /><circle cx="393" cy="195" fill="#bbdefb" fill-opacity="0.27397530628185784" r="17.5" /><circle cx="96" cy="174" fill="#bbdefb" fill-opacity="0.25887772511247265" r="48.5" /></g><g><circle cx="400.0" cy="225.0" fill="#ffffff" fill-opacity="0.9" r="56.25" /><line stroke="#ffffff" stroke-opacity="0.7" stroke-width="2" x1="400.0" x2="512.5" y1="225.0" y2="225.0" /><circle cx="512.5" cy="225.0" fill="#ffffff" fill-opacity="0.8" r="18.75" /><line stroke="#ffffff" stroke-opacity="0.7" stroke-width="2" x1="400.0" x2="479.5495128834866" y1="225.0" y2="304.5495128834866" /><circle cx="479.5495128834866" cy="304.5495128834866" fill="#ffffff" fill-opacity="0.8" r="18.75" /><line stroke="#ffffff" stroke-opacity="0.7" stroke-width="2" x1="400.0" x2="400.0" y1="225.0" y2="337.5" /><circle cx="400.0" cy="337.5" fill="#ffffff" fill-opacity="0.8" r="18.75" /><line stroke="#ffffff" stroke-opacity="0.7" stroke-width="2" x1="400.0" x2="320.4504871165134" y1="225.0" y2="304.5495128834866" /><circle cx="320.4504871165134" cy="304.5495128834866" fill="#ffffff" fill-opacity="0.8" r="18.75" /><line stroke="#ffffff" stroke-opacity="0.7" stroke-width="2" x1="400.0" x2="287.5" y1="225.0" y2="225.0" /><circle cx="287.5" cy="225.0" fill="#ffffff" fill-opacity="0.8" r="18.75" /><line stroke="#ffffff" stroke-opacity="0.7" stroke-width="2" x1="400.0" x2="320.4504871165134" y1="225.0" y2="145.45048711651344" /><circle cx="320.4504871165134" cy="145.45048711651344" fill="#ffffff" fill-opacity="0.8" r="18.75" /><line stroke="#ffffff" stroke-opacity="0.7" stroke-width="2" x1="400.0" x2="400.0" y1="225.0" y2="112.5" /><circle cx="400.0" cy="112.5" fill="#ffffff" fill-opacity="0.8" r="18.75" /><line stroke="#ffffff" stroke-opacity="0.7" stroke-width="2" x1="400.0" x2="479.54951288348656" y1="225.0" y2="145.4504871165134" /><circle cx="479.54951288348656" cy="145.4504871165134" fill="#ffffff" fill-opacity="0.8" r="18.75" /></g><text fill="none" font-family="Arial, sans-serif" font-size="40" font-weight="bold" stroke="#1565c0" stroke-width="2" text-anchor="middle" x="400.0" y="390">Nlp</text><text fill="#ffffff" font-family="Arial, sans-serif" font-size="40" font-weight="bold" text-anchor="middle" x="400.0" y="390">Nlp</text></svg>