<?xml version="1.0" encoding="utf-8" ?>
<svg baseProfile="full" height="450px" version="1.1" width="800px" xmlns="http://www.w3.org/2000/svg" xmlns:ev="http://www.w3.org/2001/xml-events" xmlns:xlink="http://www.w3.org/1999/xlink"><defs><linearGradient id="ai_gradient" x1="0" x2="1" y1="0" y2="1"><stop offset="0%" stop-color="#1565c0" stop-opacity="1" /><stop offset="100%" stop-color="#42a5f5" stop-opacity="0.7" /></linearGradient></defs><rect fill="#1565c0" height="100%" width="100%" x="0" y="0" /><rect fill="url(#ai_gradient)" height="100%" width="100%" x="0" y="0" /><g><rect fill="#bbdefb" fill-opacity="0.13617935811874785" height="31" transform="rotate(39, 327, 163)" width="31" x="327" y="163" /><circle cx="15" cy="185" fill="#bbdefb" fill-opacity="0.1183914375110521" r="16.5" /><circle cx="187" cy="0" fill="#42a5f5" fill-opacity="0.25033140267510295" r="41.5" /><rect fill="#42a5f5" fill-opacity="0.13227468150876381" height="20" transform="rotate(23, 778, 200)" width="20" x="778" y="200" /><circle cx="310" cy="84" fill="#bbdefb" fill-opacity="0.23819002940350825" r="27.0" /><circle cx="499" cy="42" fill="#42a5f5" fill-opacity="0.27850377296443063" r="22.0" /><polygon fill="#42a5f5" fill-opacity="0.2081206005664068" points="309.0,416.0 256.5,446.3108891324554 256.5,385.6891108675446" /><rect fill="#42a5f5" fill-opacity="0.27559099309309054" height="41" transform="rotate(39, 758, 335)" width="41" x="758" y="335" /><polygon fill="#bbdefb" fill-opacity="0.18923064090691308" points="561.0,367.0 538.0,390.0 515.0,367.0 538.0,344.0" /><rect fill="#42a5f5" fill-opacity="0.20635809694710625" height="47" transform="rotate(34, 671, 95)" width="47" x="671" y="95" /><polygon fill="#bbdefb" fill-opacity="0.1596590991811205" points="118.0,51.0 71.5,77.84678751731761 71.49999999999999,24.15321248268241" /><circle cx="416" cy="66" fill="#bbdefb" fill-opacity="0.29787922403783607" r="23.5" /><rect fill="#bbdefb" fill-opacity="0.13387852824165475" height="25" transform="rotate(16, 256, 235)" width="25" x="256" y="235" /><circle cx="499" cy="8" fill="#bbdefb" fill-opacity="0.23165627403380873" r="14.0" /><polygon fill="#bbdefb" fill-opacity="0.17053164959883307" points="280.5,71.0 254.0,97.5 227.5,71.0 254.0,44.5" /></g><g><circle cx="400.0" cy="225.0" fill="#ffffff" fill-opacity="0.9" r="56.25" /><line stroke="#ffffff" stroke-opacity="0.7" stroke-width="2" x1="400.0" x2="512.5" y1="225.0" y2="225.0" /><circle cx="512.5" cy="225.0" fill="#ffffff" fill-opacity="0.8" r="18.75" /><line stroke="#ffffff" stroke-opacity="0.7" stroke-width="2" x1="400.0" x2="479.5495128834866" y1="225.0" y2="304.5495128834866" /><circle cx="479.5495128834866" cy="304.5495128834866" fill="#ffffff" fill-opacity="0.8" r="18.75" /><line stroke="#ffffff" stroke-opacity="0.7" stroke-width="2" x1="400.0" x2="400.0" y1="225.0" y2="337.5" /><circle cx="400.0" cy="337.5" fill="#ffffff" fill-opacity="0.8" r="18.75" /><line stroke="#ffffff" stroke-opacity="0.7" stroke-width="2" x1="400.0" x2="320.4504871165134" y1="225.0" y2="304.5495128834866" /><circle cx="320.4504871165134" cy="304.5495128834866" fill="#ffffff" fill-opacity="0.8" r="18.75" /><line stroke="#ffffff" stroke-opacity="0.7" stroke-width="2" x1="400.0" x2="287.5" y1="225.0" y2="225.0" /><circle cx="287.5" cy="225.0" fill="#ffffff" fill-opacity="0.8" r="18.75" /><line stroke="#ffffff" stroke-opacity="0.7" stroke-width="2" x1="400.0" x2="320.4504871165134" y1="225.0" y2="145.45048711651344" /><circle cx="320.4504871165134" cy="145.45048711651344" fill="#ffffff" fill-opacity="0.8" r="18.75" /><line stroke="#ffffff" stroke-opacity="0.7" stroke-width="2" x1="400.0" x2="400.0" y1="225.0" y2="112.5" /><circle cx="400.0" cy="112.5" fill="#ffffff" fill-opacity="0.8" r="18.75" /><line stroke="#ffffff" stroke-opacity="0.7" stroke-width="2" x1="400.0" x2="479.54951288348656" y1="225.0" y2="145.4504871165134" /><circle cx="479.54951288348656" cy="145.4504871165134" fill="#ffffff" fill-opacity="0.8" r="18.75" /></g><text fill="none" font-family="Arial, sans-serif" font-size="40" font-weight="bold" stroke="#1565c0" stroke-width="2" text-anchor="middle" x="400.0" y="390">Projetos</text><text fill="#ffffff" font-family="Arial, sans-serif" font-size="40" font-weight="bold" text-anchor="middle" x="400.0" y="390">Projetos</text></svg>