<?xml version="1.0" encoding="utf-8" ?>
<svg baseProfile="full" height="450px" version="1.1" width="800px" xmlns="http://www.w3.org/2000/svg" xmlns:ev="http://www.w3.org/2001/xml-events" xmlns:xlink="http://www.w3.org/1999/xlink"><defs><linearGradient id="hero_gradient" x1="0" x2="1" y1="0" y2="1"><stop offset="0%" stop-color="#1a237e" stop-opacity="1" /><stop offset="50%" stop-color="#3949ab" stop-opacity="1" /><stop offset="100%" stop-color="#1b5e20" stop-opacity="1" /></linearGradient></defs><rect fill="url(#hero_gradient)" height="100%" width="100%" x="0" y="0" /><g id="grid" stroke="#ffffff" stroke-opacity="0.2" stroke-width="0.5"><line x1="0" x2="800" y1="0" y2="0" /><line x1="0" x2="800" y1="40" y2="40" /><line x1="0" x2="800" y1="80" y2="80" /><line x1="0" x2="800" y1="120" y2="120" /><line x1="0" x2="800" y1="160" y2="160" /><line x1="0" x2="800" y1="200" y2="200" /><line x1="0" x2="800" y1="240" y2="240" /><line x1="0" x2="800" y1="280" y2="280" /><line x1="0" x2="800" y1="320" y2="320" /><line x1="0" x2="800" y1="360" y2="360" /><line x1="0" x2="800" y1="400" y2="400" /><line x1="0" x2="800" y1="440" y2="440" /><line x1="0" x2="0" y1="0" y2="450" /><line x1="40" x2="40" y1="0" y2="450" /><line x1="80" x2="80" y1="0" y2="450" /><line x1="120" x2="120" y1="0" y2="450" /><line x1="160" x2="160" y1="0" y2="450" /><line x1="200" x2="200" y1="0" y2="450" /><line x1="240" x2="240" y1="0" y2="450" /><line x1="280" x2="280" y1="0" y2="450" /><line x1="320" x2="320" y1="0" y2="450" /><line x1="360" x2="360" y1="0" y2="450" /><line x1="400" x2="400" y1="0" y2="450" /><line x1="440" x2="440" y1="0" y2="450" /><line x1="480" x2="480" y1="0" y2="450" /><line x1="520" x2="520" y1="0" y2="450" /><line x1="560" x2="560" y1="0" y2="450" /><line x1="600" x2="600" y1="0" y2="450" /><line x1="640" x2="640" y1="0" y2="450" /><line x1="680" x2="680" y1="0" y2="450" /><line x1="720" x2="720" y1="0" y2="450" /><line x1="760" x2="760" y1="0" y2="450" /></g><g id="network"><circle cx="218" cy="334" fill="#ffffff" fill-opacity="0.5964052295288265" r="4" /><circle cx="480" cy="189" fill="#ffffff" fill-opacity="0.770585068666664" r="4" /><circle cx="238" cy="200" fill="#ffffff" fill-opacity="0.6041165683354844" r="6" /><circle cx="358" cy="255" fill="#ffffff" fill-opacity="0.6999104482886949" r="5" /><circle cx="494" cy="205" fill="#ffffff" fill-opacity="0.6306683270375704" r="4" /><circle cx="377" cy="282" fill="#ffffff" fill-opacity="0.677454088435692" r="6" /><circle cx="499" cy="224" fill="#ffffff" fill-opacity="0.8071569522927805" r="5" /><circle cx="468" cy="130" fill="#ffffff" fill-opacity="0.6394215513428536" r="7" /><circle cx="475" cy="201" fill="#ffffff" fill-opacity="0.5333477965934061" r="6" /><circle cx="546" cy="188" fill="#ffffff" fill-opacity="0.6933286032234606" r="8" /><circle cx="543" cy="232" fill="#ffffff" fill-opacity="0.8862160750159589" r="6" /><circle cx="434" cy="290" fill="#ffffff" fill-opacity="0.5440182476032147" r="7" /><circle cx="580" cy="159" fill="#ffffff" fill-opacity="0.7174284342349886" r="3" /><circle cx="481" cy="210" fill="#ffffff" fill-opacity="0.7090313644827557" r="6" /><circle cx="348" cy="286" fill="#ffffff" fill-opacity="0.729385252908468" r="6" /><line stroke="#ffffff" stroke-opacity="0.4" stroke-width="1" x1="480" x2="377" y1="189" y2="282" /><line stroke="#ffffff" stroke-opacity="0.4" stroke-width="1" x1="480" x2="468" y1="189" y2="130" /><line stroke="#ffffff" stroke-opacity="0.4" stroke-width="1" x1="480" x2="543" y1="189" y2="232" /><line stroke="#ffffff" stroke-opacity="0.4" stroke-width="1" x1="480" x2="580" y1="189" y2="159" /><line stroke="#ffffff" stroke-opacity="0.4" stroke-width="1" x1="480" x2="481" y1="189" y2="210" /><line stroke="#ffffff" stroke-opacity="0.4" stroke-width="1" x1="480" x2="348" y1="189" y2="286" /><line stroke="#ffffff" stroke-opacity="0.4" stroke-width="1" x1="238" x2="358" y1="200" y2="255" /><line stroke="#ffffff" stroke-opacity="0.4" stroke-width="1" x1="238" x2="377" y1="200" y2="282" /><line stroke="#ffffff" stroke-opacity="0.4" stroke-width="1" x1="358" x2="494" y1="255" y2="205" /><line stroke="#ffffff" stroke-opacity="0.4" stroke-width="1" x1="358" x2="468" y1="255" y2="130" /><line stroke="#ffffff" stroke-opacity="0.4" stroke-width="1" x1="494" x2="499" y1="205" y2="224" /><line stroke="#ffffff" stroke-opacity="0.4" stroke-width="1" x1="494" x2="546" y1="205" y2="188" /><line stroke="#ffffff" stroke-opacity="0.4" stroke-width="1" x1="494" x2="481" y1="205" y2="210" /><line stroke="#ffffff" stroke-opacity="0.4" stroke-width="1" x1="377" x2="468" y1="282" y2="130" /><line stroke="#ffffff" stroke-opacity="0.4" stroke-width="1" x1="377" x2="481" y1="282" y2="210" /><line stroke="#ffffff" stroke-opacity="0.4" stroke-width="1" x1="499" x2="546" y1="224" y2="188" /><line stroke="#ffffff" stroke-opacity="0.4" stroke-width="1" x1="499" x2="348" y1="224" y2="286" /><line stroke="#ffffff" stroke-opacity="0.4" stroke-width="1" x1="468" x2="546" y1="130" y2="188" /><line stroke="#ffffff" stroke-opacity="0.4" stroke-width="1" x1="468" x2="434" y1="130" y2="290" /><line stroke="#ffffff" stroke-opacity="0.4" stroke-width="1" x1="468" x2="580" y1="130" y2="159" /><line stroke="#ffffff" stroke-opacity="0.4" stroke-width="1" x1="475" x2="481" y1="201" y2="210" /><line stroke="#ffffff" stroke-opacity="0.4" stroke-width="1" x1="546" x2="481" y1="188" y2="210" /><line stroke="#ffffff" stroke-opacity="0.4" stroke-width="1" x1="543" x2="434" y1="232" y2="290" /><line stroke="#ffffff" stroke-opacity="0.4" stroke-width="1" x1="543" x2="481" y1="232" y2="210" /><line stroke="#ffffff" stroke-opacity="0.4" stroke-width="1" x1="434" x2="481" y1="290" y2="210" /><line stroke="#ffffff" stroke-opacity="0.4" stroke-width="1" x1="434" x2="348" y1="290" y2="286" /></g><text fill="none" font-family="Arial, sans-serif" font-size="48" font-weight="bold" stroke="#000000" stroke-opacity="0.5" stroke-width="2" text-anchor="middle" x="400.0" y="205.0">Aprenda IA &amp; Cybersegurança</text><text fill="#ffffff" font-family="Arial, sans-serif" font-size="48" font-weight="bold" text-anchor="middle" x="400.0" y="205.0">Aprenda IA &amp; Cybersegurança</text><text fill="#ffffff" fill-opacity="0.9" font-family="Arial, sans-serif" font-size="24" text-anchor="middle" x="400.0" y="265.0">Trilhas de aprendizado para profissionais municipais</text></svg>