<?xml version="1.0" encoding="utf-8" ?>
<svg baseProfile="full" height="450px" version="1.1" width="800px" xmlns="http://www.w3.org/2000/svg" xmlns:ev="http://www.w3.org/2001/xml-events" xmlns:xlink="http://www.w3.org/1999/xlink"><defs><linearGradient id="cyber_gradient" x1="0" x2="1" y1="0" y2="1"><stop offset="0%" stop-color="#2e7d32" stop-opacity="1" /><stop offset="100%" stop-color="#66bb6a" stop-opacity="0.7" /></linearGradient></defs><rect fill="#2e7d32" height="100%" width="100%" x="0" y="0" /><rect fill="url(#cyber_gradient)" height="100%" width="100%" x="0" y="0" /><g><rect fill="#66bb6a" fill-opacity="0.2956812195416144" height="83" transform="rotate(10, 491, 407)" width="83" x="491" y="407" /><rect fill="#c8e6c9" fill-opacity="0.11696140742434016" height="29" transform="rotate(29, 419, 287)" width="29" x="419" y="287" /><rect fill="#66bb6a" fill-opacity="0.15805252038224774" height="23" transform="rotate(24, 262, 19)" width="23" x="262" y="19" /><polygon fill="#c8e6c9" fill-opacity="0.26164197258497296" points="802.0,337.0 782.6524758424986,363.6295824562643 751.3475241575014,353.45798706418924 751.3475241575014,320.54201293581076 782.6524758424986,310.3704175437357" /><polygon fill="#c8e6c9" fill-opacity="0.14653129272759058" points="782.0,243.0 755.0516627806229,280.09120413551096 711.4483372193771,265.92362483940644 711.4483372193771,220.07637516059356 755.0516627806229,205.908795864489" /><circle cx="574" cy="234" fill="#66bb6a" fill-opacity="0.21610238198559467" r="29.5" /><polygon fill="#66bb6a" fill-opacity="0.1373828222583379" points="478.0,315.0 461.0,344.4448637286709 427.0,344.4448637286709 410.0,315.0 427.0,285.5551362713291 461.0,285.5551362713291" /><circle cx="462" cy="304" fill="#c8e6c9" fill-opacity="0.19643136731842215" r="31.5" /><polygon fill="#66bb6a" fill-opacity="0.2422576076030645" points="630.5,181.0 599.7512562496852,223.32201497513432 549.9987437503148,207.15644372701507 549.9987437503148,154.84355627298496 599.7512562496852,138.67798502486568" /><circle cx="656" cy="375" fill="#66bb6a" fill-opacity="0.2612144767051102" r="44.0" /><rect fill="#c8e6c9" fill-opacity="0.12606198295402754" height="52" transform="rotate(22, 282, 5)" width="52" x="282" y="5" /><rect fill="#c8e6c9" fill-opacity="0.25057322567642404" height="73" transform="rotate(44, 411, 224)" width="73" x="411" y="224" /><polygon fill="#c8e6c9" fill-opacity="0.23909151097464618" points="747.0,391.0 722.0,434.30127018922195 672.0,434.30127018922195 647.0,391.0 672.0,347.6987298107781 722.0,347.69872981077805" /><rect fill="#c8e6c9" fill-opacity="0.2278691747219293" height="98" transform="rotate(31, 259, 314)" width="98" x="259" y="314" /><rect fill="#66bb6a" fill-opacity="0.1923636401477636" height="74" transform="rotate(8, 39, 341)" width="74" x="39" y="341" /></g><g><polygon fill="none" points="400.0,112.5 512.5,168.75 512.5,281.25 400.0,337.5 287.5,281.25 287.5,168.75" stroke="#ffffff" stroke-width="3" /><rect fill="#ffffff" fill-opacity="0.8" height="75.0" rx="15.0" ry="15.0" width="75.0" x="362.5" y="225.0" /><path d="M381.25,225.0 A18.75,18.75 0 1,1 418.75,225.0" fill="none" stroke="#ffffff" stroke-width="3" /></g><text fill="none" font-family="Arial, sans-serif" font-size="40" font-weight="bold" stroke="#2e7d32" stroke-width="2" text-anchor="middle" x="400.0" y="390">Forense</text><text fill="#ffffff" font-family="Arial, sans-serif" font-size="40" font-weight="bold" text-anchor="middle" x="400.0" y="390">Forense</text></svg>