<?xml version="1.0" encoding="utf-8" ?>
<svg baseProfile="full" height="450px" version="1.1" width="800px" xmlns="http://www.w3.org/2000/svg" xmlns:ev="http://www.w3.org/2001/xml-events" xmlns:xlink="http://www.w3.org/1999/xlink"><defs><linearGradient id="cyber_gradient" x1="0" x2="1" y1="0" y2="1"><stop offset="0%" stop-color="#2e7d32" stop-opacity="1" /><stop offset="100%" stop-color="#66bb6a" stop-opacity="0.7" /></linearGradient></defs><rect fill="#2e7d32" height="100%" width="100%" x="0" y="0" /><rect fill="url(#cyber_gradient)" height="100%" width="100%" x="0" y="0" /><g><rect fill="#c8e6c9" fill-opacity="0.11729724838251246" height="85" transform="rotate(39, 292, 168)" width="85" x="292" y="168" /><circle cx="644" cy="293" fill="#66bb6a" fill-opacity="0.2978212133959619" r="29.0" /><polygon fill="#c8e6c9" fill-opacity="0.25734286947594376" points="151.5,75.0 109.0,117.5 66.5,75.0 108.99999999999999,32.5" /><rect fill="#c8e6c9" fill-opacity="0.20896268721490974" height="26" transform="rotate(36, 595, 2)" width="26" x="595" y="2" /><rect fill="#c8e6c9" fill-opacity="0.2750199351664524" height="98" transform="rotate(22, 120, 73)" width="98" x="120" y="73" /><polygon fill="#66bb6a" fill-opacity="0.10840285355025392" points="30.5,444.0 19.0,455.5 7.5,444.0 18.999999999999996,432.5" /><circle cx="75" cy="430" fill="#c8e6c9" fill-opacity="0.17278028032999707" r="26.0" /><circle cx="607" cy="56" fill="#c8e6c9" fill-opacity="0.2312206649893003" r="18.0" /><polygon fill="#66bb6a" fill-opacity="0.23749851174389924" points="520.5,129.0 489.75,146.753520777581 489.75,111.24647922241901" /><circle cx="536" cy="411" fill="#66bb6a" fill-opacity="0.1700036213380995" r="29.5" /><polygon fill="#c8e6c9" fill-opacity="0.12542416724133862" points="184.5,423.0 176.5536954353119,433.9371499373943 163.6963045646881,429.75953040136346 163.6963045646881,416.24046959863654 176.55369543531188,412.0628500626057" /><polygon fill="#66bb6a" fill-opacity="0.28211746897631707" points="510.0,210.0 475.45084971874735,257.5528258147577 419.54915028125265,239.38926261462365 419.54915028125265,180.61073738537635 475.45084971874735,162.44717418524232" /><rect fill="#c8e6c9" fill-opacity="0.19112973986880252" height="67" transform="rotate(25, 602, 277)" width="67" x="602" y="277" /><circle cx="724" cy="92" fill="#c8e6c9" fill-opacity="0.2717061328126865" r="36.5" /><polygon fill="#c8e6c9" fill-opacity="0.2754570719406489" points="637.5,246.0 626.25,265.48557158514984 603.75,265.4855715851499 592.5,246.0 603.75,226.51442841485013 626.25,226.51442841485013" /></g><g><polygon fill="none" points="400.0,112.5 512.5,168.75 512.5,281.25 400.0,337.5 287.5,281.25 287.5,168.75" stroke="#ffffff" stroke-width="3" /><rect fill="#ffffff" fill-opacity="0.8" height="75.0" rx="15.0" ry="15.0" width="75.0" x="362.5" y="225.0" /><path d="M381.25,225.0 A18.75,18.75 0 1,1 418.75,225.0" fill="none" stroke="#ffffff" stroke-width="3" /></g><text fill="none" font-family="Arial, sans-serif" font-size="40" font-weight="bold" stroke="#2e7d32" stroke-width="2" text-anchor="middle" x="400.0" y="390">Dados</text><text fill="#ffffff" font-family="Arial, sans-serif" font-size="40" font-weight="bold" text-anchor="middle" x="400.0" y="390">Dados</text></svg>