<?xml version="1.0" encoding="utf-8" ?>
<svg baseProfile="full" height="450px" version="1.1" width="800px" xmlns="http://www.w3.org/2000/svg" xmlns:ev="http://www.w3.org/2001/xml-events" xmlns:xlink="http://www.w3.org/1999/xlink"><defs><linearGradient id="cyber_gradient" x1="0" x2="1" y1="0" y2="1"><stop offset="0%" stop-color="#2e7d32" stop-opacity="1" /><stop offset="100%" stop-color="#66bb6a" stop-opacity="0.7" /></linearGradient></defs><rect fill="#2e7d32" height="100%" width="100%" x="0" y="0" /><rect fill="url(#cyber_gradient)" height="100%" width="100%" x="0" y="0" /><g><circle cx="353" cy="228" fill="#c8e6c9" fill-opacity="0.2907825026446924" r="19.0" /><rect fill="#c8e6c9" fill-opacity="0.1495885593475691" height="71" transform="rotate(26, 443, 33)" width="71" x="443" y="33" /><rect fill="#c8e6c9" fill-opacity="0.2989705877178355" height="29" transform="rotate(43, 431, 269)" width="29" x="431" y="269" /><polygon fill="#c8e6c9" fill-opacity="0.11182653407190538" points="573.0,445.0 532.5,468.38268590217984 532.5,421.61731409782016" /><polygon fill="#c8e6c9" fill-opacity="0.14133086147116442" points="55.5,362.0 8.250000000000007,389.27980021920985 8.249999999999986,334.7201997807902" /><polygon fill="#66bb6a" fill-opacity="0.2786179164332109" points="436.0,181.0 428.5,193.99038105676658 413.5,193.99038105676658 406.0,181.0 413.5,168.00961894323342 428.5,168.00961894323342" /><rect fill="#66bb6a" fill-opacity="0.15400032607622788" height="81" transform="rotate(37, 376, 59)" width="81" x="376" y="59" /><polygon fill="#66bb6a" fill-opacity="0.23590704847599162" points="606.5,232.0 595.0987804071866,247.69243251887002 576.6512195928134,241.6984566628258 576.6512195928134,222.3015433371742 595.0987804071866,216.30756748112998" /><rect fill="#66bb6a" fill-opacity="0.13179132008518551" height="48" transform="rotate(7, 190, 444)" width="48" x="190" y="444" /><polygon fill="#c8e6c9" fill-opacity="0.19361270296477223" points="760.5,261.0 744.75,270.09326673973663 744.75,251.9067332602634" /><circle cx="366" cy="246" fill="#66bb6a" fill-opacity="0.2619591298791741" r="43.5" /><rect fill="#66bb6a" fill-opacity="0.17043366283727546" height="77" transform="rotate(8, 252, 4)" width="77" x="252" y="4" /><circle cx="376" cy="0" fill="#c8e6c9" fill-opacity="0.2701795880300598" r="24.0" /><polygon fill="#c8e6c9" fill-opacity="0.28893045380092874" points="47.5,12.0 -16.24999999999999,48.80607966083865 -16.250000000000018,-24.806079660838634" /><circle cx="352" cy="314" fill="#c8e6c9" fill-opacity="0.14717021102786826" r="25.0" /></g><g><polygon fill="none" points="400.0,112.5 512.5,168.75 512.5,281.25 400.0,337.5 287.5,281.25 287.5,168.75" stroke="#ffffff" stroke-width="3" /><rect fill="#ffffff" fill-opacity="0.8" height="75.0" rx="15.0" ry="15.0" width="75.0" x="362.5" y="225.0" /><path d="M381.25,225.0 A18.75,18.75 0 1,1 418.75,225.0" fill="none" stroke="#ffffff" stroke-width="3" /></g><text fill="none" font-family="Arial, sans-serif" font-size="40" font-weight="bold" stroke="#2e7d32" stroke-width="2" text-anchor="middle" x="400.0" y="390">Redes</text><text fill="#ffffff" font-family="Arial, sans-serif" font-size="40" font-weight="bold" text-anchor="middle" x="400.0" y="390">Redes</text></svg>