<?xml version="1.0" encoding="utf-8" ?>
<svg baseProfile="full" height="450px" version="1.1" width="800px" xmlns="http://www.w3.org/2000/svg" xmlns:ev="http://www.w3.org/2001/xml-events" xmlns:xlink="http://www.w3.org/1999/xlink"><defs><linearGradient id="cyber_gradient" x1="0" x2="1" y1="0" y2="1"><stop offset="0%" stop-color="#2e7d32" stop-opacity="1" /><stop offset="100%" stop-color="#66bb6a" stop-opacity="0.7" /></linearGradient></defs><rect fill="#2e7d32" height="100%" width="100%" x="0" y="0" /><rect fill="url(#cyber_gradient)" height="100%" width="100%" x="0" y="0" /><g><rect fill="#c8e6c9" fill-opacity="0.10963950142095742" height="93" transform="rotate(8, 42, 279)" width="93" x="42" y="279" /><rect fill="#c8e6c9" fill-opacity="0.11155592521232638" height="45" transform="rotate(24, 358, 186)" width="45" x="358" y="186" /><circle cx="788" cy="279" fill="#c8e6c9" fill-opacity="0.24642206525795815" r="34.0" /><rect fill="#c8e6c9" fill-opacity="0.2034524542913025" height="85" transform="rotate(29, 671, 239)" width="85" x="671" y="239" /><circle cx="280" cy="302" fill="#c8e6c9" fill-opacity="0.15811511287611785" r="20.0" /><polygon fill="#c8e6c9" fill-opacity="0.1609025636952087" points="64.0,195.0 -4.999999999999989,234.8371685740842 -5.000000000000021,155.16283142591584" /><polygon fill="#66bb6a" fill-opacity="0.27962037284788954" points="166.0,441.0 140.0,467.0 114.0,441.0 140.0,415.0" /><rect fill="#c8e6c9" fill-opacity="0.2082737017416159" height="41" transform="rotate(38, 50, 152)" width="41" x="50" y="152" /><circle cx="206" cy="194" fill="#c8e6c9" fill-opacity="0.21278426895211042" r="35.0" /><polygon fill="#c8e6c9" fill-opacity="0.15743205990530734" points="421.5,108.0 354.75,146.53813046840753 354.75,69.4618695315925" /><polygon fill="#66bb6a" fill-opacity="0.21772127156491058" points="374.0,239.0 348.5,253.72243186433545 348.5,224.27756813566455" /><rect fill="#66bb6a" fill-opacity="0.2700944183711915" height="92" transform="rotate(19, 602, 23)" width="92" x="602" y="23" /><rect fill="#66bb6a" fill-opacity="0.15731385591495106" height="60" transform="rotate(26, 296, 304)" width="60" x="296" y="304" /><circle cx="303" cy="48" fill="#66bb6a" fill-opacity="0.1279440362762151" r="16.5" /><circle cx="15" cy="269" fill="#c8e6c9" fill-opacity="0.18929556354117383" r="28.0" /></g><g><polygon fill="none" points="400.0,112.5 512.5,168.75 512.5,281.25 400.0,337.5 287.5,281.25 287.5,168.75" stroke="#ffffff" stroke-width="3" /><rect fill="#ffffff" fill-opacity="0.8" height="75.0" rx="15.0" ry="15.0" width="75.0" x="362.5" y="225.0" /><path d="M381.25,225.0 A18.75,18.75 0 1,1 418.75,225.0" fill="none" stroke="#ffffff" stroke-width="3" /></g><text fill="none" font-family="Arial, sans-serif" font-size="40" font-weight="bold" stroke="#2e7d32" stroke-width="2" text-anchor="middle" x="400.0" y="390">Fundamentos</text><text fill="#ffffff" font-family="Arial, sans-serif" font-size="40" font-weight="bold" text-anchor="middle" x="400.0" y="390">Fundamentos</text></svg>