<?xml version="1.0" encoding="utf-8" ?>
<svg baseProfile="full" height="450px" version="1.1" width="800px" xmlns="http://www.w3.org/2000/svg" xmlns:ev="http://www.w3.org/2001/xml-events" xmlns:xlink="http://www.w3.org/1999/xlink"><defs><linearGradient id="cyber_gradient" x1="0" x2="1" y1="0" y2="1"><stop offset="0%" stop-color="#2e7d32" stop-opacity="1" /><stop offset="100%" stop-color="#66bb6a" stop-opacity="0.7" /></linearGradient></defs><rect fill="#2e7d32" height="100%" width="100%" x="0" y="0" /><rect fill="url(#cyber_gradient)" height="100%" width="100%" x="0" y="0" /><g><rect fill="#66bb6a" fill-opacity="0.2370146274375519" height="24" transform="rotate(2, 0, 12)" width="24" x="0" y="12" /><polygon fill="#c8e6c9" fill-opacity="0.2520561130183346" points="406.0,99.0 385.0,111.12435565298215 385.0,86.87564434701787" /><rect fill="#66bb6a" fill-opacity="0.21445400131161269" height="47" transform="rotate(42, 537, 149)" width="47" x="537" y="149" /><rect fill="#66bb6a" fill-opacity="0.19428644325857353" height="73" transform="rotate(4, 127, 149)" width="73" x="127" y="149" /><polygon fill="#c8e6c9" fill-opacity="0.21564144284484363" points="615.5,419.0 593.75,456.6721050646231 550.25,456.6721050646231 528.5,419.0 550.25,381.32789493537695 593.75,381.3278949353769" /><rect fill="#66bb6a" fill-opacity="0.24548504178408703" height="95" transform="rotate(32, 773, 365)" width="95" x="773" y="365" /><circle cx="70" cy="25" fill="#66bb6a" fill-opacity="0.2747877046674878" r="34.5" /><circle cx="606" cy="266" fill="#c8e6c9" fill-opacity="0.25859445377817164" r="23.5" /><polygon fill="#66bb6a" fill-opacity="0.23449025555301262" points="690.5,243.0 659.0602732440601,286.2730714914295 608.1897267559399,269.74422897930754 608.1897267559399,216.25577102069246 659.0602732440601,199.7269285085705" /><circle cx="660" cy="278" fill="#66bb6a" fill-opacity="0.2505758062612787" r="16.5" /><circle cx="161" cy="417" fill="#66bb6a" fill-opacity="0.22621802526696458" r="21.5" /><polygon fill="#66bb6a" fill-opacity="0.1679483317804417" points="181.0,415.0 148.0,434.05255888325763 148.0,395.94744111674237" /><circle cx="109" cy="379" fill="#c8e6c9" fill-opacity="0.24730372892254596" r="26.5" /><rect fill="#66bb6a" fill-opacity="0.19951179826588827" height="27" transform="rotate(26, 511, 360)" width="27" x="511" y="360" /><circle cx="595" cy="303" fill="#66bb6a" fill-opacity="0.24798869776190183" r="21.5" /></g><g><polygon fill="none" points="400.0,112.5 512.5,168.75 512.5,281.25 400.0,337.5 287.5,281.25 287.5,168.75" stroke="#ffffff" stroke-width="3" /><rect fill="#ffffff" fill-opacity="0.8" height="75.0" rx="15.0" ry="15.0" width="75.0" x="362.5" y="225.0" /><path d="M381.25,225.0 A18.75,18.75 0 1,1 418.75,225.0" fill="none" stroke="#ffffff" stroke-width="3" /></g><text fill="none" font-family="Arial, sans-serif" font-size="40" font-weight="bold" stroke="#2e7d32" stroke-width="2" text-anchor="middle" x="400.0" y="390">Ataques</text><text fill="#ffffff" font-family="Arial, sans-serif" font-size="40" font-weight="bold" text-anchor="middle" x="400.0" y="390">Ataques</text></svg>