<?xml version="1.0" encoding="utf-8" ?>
<svg baseProfile="full" height="450px" version="1.1" width="800px" xmlns="http://www.w3.org/2000/svg" xmlns:ev="http://www.w3.org/2001/xml-events" xmlns:xlink="http://www.w3.org/1999/xlink"><defs><linearGradient id="cyber_gradient" x1="0" x2="1" y1="0" y2="1"><stop offset="0%" stop-color="#2e7d32" stop-opacity="1" /><stop offset="100%" stop-color="#66bb6a" stop-opacity="0.7" /></linearGradient></defs><rect fill="#2e7d32" height="100%" width="100%" x="0" y="0" /><rect fill="url(#cyber_gradient)" height="100%" width="100%" x="0" y="0" /><g><circle cx="305" cy="96" fill="#66bb6a" fill-opacity="0.269054825941857" r="33.0" /><rect fill="#c8e6c9" fill-opacity="0.13865030774244014" height="28" transform="rotate(42, 656, 242)" width="28" x="656" y="242" /><polygon fill="#66bb6a" fill-opacity="0.17216330153497186" points="798.0,191.0 789.0172209268743,203.363734711837 774.4827790731257,198.64120827980216 774.4827790731257,183.35879172019784 789.0172209268743,178.636265288163" /><polygon fill="#c8e6c9" fill-opacity="0.25716992946300427" points="772.0,82.0 733.0,104.51666049839541 733.0,59.483339501604604" /><circle cx="353" cy="28" fill="#66bb6a" fill-opacity="0.1265617843023977" r="36.0" /><rect fill="#c8e6c9" fill-opacity="0.2950220867213441" height="30" transform="rotate(7, 315, 377)" width="30" x="315" y="377" /><rect fill="#66bb6a" fill-opacity="0.12991717751974224" height="34" transform="rotate(22, 739, 273)" width="34" x="739" y="273" /><circle cx="722" cy="6" fill="#c8e6c9" fill-opacity="0.11253722576363955" r="13.5" /><circle cx="653" cy="69" fill="#66bb6a" fill-opacity="0.16862808365900028" r="47.0" /><rect fill="#c8e6c9" fill-opacity="0.24020635679048552" height="63" transform="rotate(2, 6, 305)" width="63" x="6" y="305" /><rect fill="#c8e6c9" fill-opacity="0.2725108152074694" height="91" transform="rotate(37, 380, 408)" width="91" x="380" y="408" /><circle cx="80" cy="398" fill="#c8e6c9" fill-opacity="0.2997545361718311" r="23.0" /><rect fill="#c8e6c9" fill-opacity="0.24578481015016843" height="46" transform="rotate(5, 246, 47)" width="46" x="246" y="47" /><polygon fill="#c8e6c9" fill-opacity="0.21182541930586585" points="114.0,146.0 105.70820393249937,157.41267819554184 92.29179606750063,153.05342302750967 92.29179606750063,138.94657697249033 105.70820393249937,134.58732180445816" /><circle cx="43" cy="188" fill="#c8e6c9" fill-opacity="0.2661276198392414" r="33.0" /></g><g><polygon fill="none" points="400.0,112.5 512.5,168.75 512.5,281.25 400.0,337.5 287.5,281.25 287.5,168.75" stroke="#ffffff" stroke-width="3" /><rect fill="#ffffff" fill-opacity="0.8" height="75.0" rx="15.0" ry="15.0" width="75.0" x="362.5" y="225.0" /><path d="M381.25,225.0 A18.75,18.75 0 1,1 418.75,225.0" fill="none" stroke="#ffffff" stroke-width="3" /></g><text fill="none" font-family="Arial, sans-serif" font-size="40" font-weight="bold" stroke="#2e7d32" stroke-width="2" text-anchor="middle" x="400.0" y="390">Incidentes</text><text fill="#ffffff" font-family="Arial, sans-serif" font-size="40" font-weight="bold" text-anchor="middle" x="400.0" y="390">Incidentes</text></svg>